<mxfile host="app.diagrams.net" modified="2023-05-17T05:31:30.858Z" agent="Mozilla/5.0 (Windows NT 10.0; Win64; x64) AppleWebKit/537.36 (KHTML, like Gecko) Chrome/113.0.0.0 Safari/537.36" version="21.3.2" etag="0K58lhU26r8Yyk5BhUa5" type="github">
  <diagram name="Page-1" id="tJR0okrB9vupvb9RRRPZ">
    <mxGraphModel>
      <root>
        <mxCell id="0" />
        <mxCell id="1" parent="0" />
      </root>
    </mxGraphModel>
  </diagram>
</mxfile>
